<svg width="232" height="33" viewBox="0 0 232 33" fill="none" xmlns="http://www.w3.org/2000/svg">
<path d="M6.79672 30.7048H0L7.81511 11.5088L11.2343 19.8418L6.79672 30.7048Z" fill="url(#paint0_linear_2244_2967)"/>
<path d="M26.8533 30.7048H33.6503L25.8349 11.5088L22.416 19.8418L26.8533 30.7048Z" fill="url(#paint1_linear_2244_2967)"/>
<path d="M13.9014 24.7836L8.10352 9.89258H14.1769L17.2373 17.5745L13.9014 24.7836Z" fill="url(#paint2_linear_2244_2967)"/>
<path d="M13.5039 23.7553L16.6455 32L29.5953 0H23.4712L13.5039 23.7553Z" fill="url(#paint3_linear_2244_2967)"/>
<path d="M39.7676 26.1204L43.6925 14.4707H40.6064L38.2325 22.6412H38.2008L35.8427 14.4707H32.7725L36.6815 26.1204H39.7676ZM52.5235 26.1204V17.3831H49.8964V18.3119H49.8647C49.5729 17.9083 49.1837 17.5843 48.7328 17.3697C48.282 17.1551 47.7841 17.0568 47.2851 17.084C44.7687 17.084 42.8854 19.1643 42.8854 21.7439C42.8854 24.3864 44.6896 26.4195 47.2851 26.4195C48.4404 26.4195 49.4849 25.9472 49.8647 25.1758H49.8964V26.1204H52.5235ZM47.6965 23.9793C47.4075 23.9779 47.1216 23.9196 46.8552 23.808C46.5888 23.6963 46.3472 23.5334 46.1443 23.3286C45.9414 23.1238 45.7811 22.8812 45.6727 22.6147C45.5643 22.3481 45.5098 22.0629 45.5125 21.7754C45.5032 21.4865 45.5517 21.1988 45.6552 20.9288C45.7587 20.6588 45.9152 20.412 46.1155 20.2027C46.3157 19.9934 46.5559 19.8258 46.8219 19.7097C47.0879 19.5936 47.3744 19.5313 47.6649 19.5264C47.958 19.526 48.2484 19.5832 48.5193 19.6946C48.7902 19.806 49.0363 19.9695 49.2436 20.1757C49.4509 20.3819 49.6153 20.6267 49.7273 20.8962C49.8393 21.1657 49.8967 21.4545 49.8964 21.7461C49.9029 22.0374 49.8509 22.327 49.7432 22.598C49.6355 22.8689 49.4745 23.1157 49.2695 23.3238C49.0645 23.5319 48.8197 23.6971 48.5496 23.8097C48.2795 23.9222 47.9894 23.9799 47.6965 23.9793ZM57.1448 26.1204V14.4707H54.5176V26.1204H57.1448ZM61.671 16.4543V14.4707H59.0439V16.4543H61.671ZM61.671 26.1204V17.3831H59.0439V26.1204H61.671ZM72.7177 26.1204V14.4707H70.0906V18.1253C69.758 17.7816 69.3565 17.5115 68.912 17.3325C68.4675 17.1534 67.9901 17.0695 67.5109 17.0863C64.9471 17.0863 63.1587 19.1171 63.1587 21.7304C63.1587 24.3729 64.8996 26.406 67.5584 26.406C68.8064 26.4015 69.6949 25.9787 70.1855 25.1758H70.2194V26.1204H72.7177ZM67.9857 23.9636C67.6897 23.9703 67.3956 23.9162 67.1216 23.8048C66.8476 23.6934 66.5996 23.5269 66.3932 23.3159C66.1868 23.1048 66.0263 22.8537 65.9218 22.5782C65.8173 22.3027 65.771 22.0087 65.7859 21.7146C65.7803 21.4244 65.834 21.1361 65.9436 20.8671C66.0532 20.5981 66.2164 20.354 66.4235 20.1494C66.6306 19.9449 66.8772 19.7843 67.1484 19.6772C67.4196 19.5701 67.7098 19.5188 68.0015 19.5264C68.2938 19.5186 68.5847 19.5695 68.8568 19.6762C69.1288 19.7828 69.3765 19.943 69.5848 20.1471C69.7932 20.3512 69.958 20.5951 70.0693 20.864C70.1807 21.133 70.2364 21.4215 70.233 21.7124C70.2415 22.009 70.1893 22.3042 70.0796 22.5801C69.9698 22.856 69.8049 23.1069 69.5947 23.3174C69.3845 23.528 69.1335 23.6938 68.8569 23.8049C68.5803 23.916 68.2839 23.97 67.9857 23.9636ZM83.8413 26.1204V17.3831H81.2164V18.3119H81.1847C80.8929 17.9083 80.5037 17.5843 80.0528 17.3697C79.602 17.1551 79.1041 17.0568 78.6051 17.084C76.0887 17.084 74.2054 19.1643 74.2054 21.7439C74.2054 24.3864 76.0096 26.4195 78.6051 26.4195C79.7604 26.4195 80.8049 25.9472 81.1847 25.1758H81.2164V26.1204H83.8413ZM79.0143 23.9793C78.7254 23.9776 78.4397 23.9191 78.1736 23.8073C77.9075 23.6955 77.6662 23.5326 77.4635 23.3278C77.2608 23.1231 77.1007 22.8805 76.9925 22.6141C76.8842 22.3477 76.8298 22.0627 76.8325 21.7754C76.8232 21.4865 76.8717 21.1988 76.9752 20.9288C77.0787 20.6588 77.2351 20.412 77.4354 20.2027C77.6357 19.9934 77.8759 19.8258 78.1419 19.7097C78.4079 19.5936 78.6944 19.5313 78.9849 19.5264C79.278 19.526 79.5684 19.5832 79.8393 19.6946C80.1102 19.806 80.3563 19.9695 80.5636 20.1757C80.7709 20.3819 80.9353 20.6267 81.0473 20.8962C81.1593 21.1657 81.2167 21.4545 81.2164 21.7461C81.2229 22.0374 81.1708 22.327 81.0632 22.598C80.9555 22.8689 80.7945 23.1157 80.5895 23.3238C80.3845 23.5319 80.1397 23.6971 79.8696 23.8097C79.5995 23.9222 79.3094 23.9799 79.0165 23.9793H79.0143ZM88.9848 26.1204V19.3667H90.2509V17.3831H88.9848V14.4707H86.3599V17.3831H85.0599V19.3667H86.3599V26.1204H88.9848ZM94.0152 16.4543V14.4707H91.3926V16.4543H94.0152ZM94.0152 26.1204V17.3831H91.3926V26.1204H94.0152ZM104.967 21.7124C104.971 21.0976 104.851 20.4883 104.613 19.9207C104.376 19.3532 104.026 18.839 103.584 18.4088C103.142 17.9786 102.618 17.6412 102.043 17.4167C101.468 17.1922 100.853 17.0852 100.235 17.102C99.6141 17.0846 98.9962 17.1924 98.4183 17.4189C97.8405 17.6453 97.3147 17.9857 96.8726 18.4196C96.4305 18.8535 96.0812 19.3719 95.8459 19.9436C95.6105 20.5152 95.4938 21.1284 95.5029 21.7461C95.4925 22.3642 95.6083 22.9779 95.8432 23.5502C96.0782 24.1225 96.4274 24.6414 96.8698 25.0755C97.3121 25.5097 97.8384 25.85 98.4169 26.076C98.9953 26.302 99.6138 26.4089 100.235 26.3902C100.859 26.4087 101.48 26.3006 102.061 26.0725C102.642 25.8444 103.17 25.501 103.613 25.0634C104.056 24.6258 104.405 24.103 104.639 23.5268C104.872 22.9507 104.986 22.3334 104.971 21.7124H104.967ZM100.235 23.9479C99.9512 23.9408 99.6716 23.8781 99.4122 23.7635C99.1528 23.6489 98.9187 23.4846 98.7232 23.2799C98.5277 23.0752 98.3747 22.8342 98.2729 22.5706C98.1711 22.307 98.1226 22.0261 98.13 21.7439C98.117 21.1767 98.3293 20.6273 98.7207 20.2147C99.1122 19.8022 99.6514 19.5597 100.221 19.5399C100.506 19.5452 100.787 19.6065 101.049 19.7203C101.31 19.8342 101.545 19.9982 101.743 20.203C101.94 20.4079 102.094 20.6495 102.197 20.9139C102.3 21.1783 102.349 21.4604 102.342 21.7439C102.351 22.0263 102.304 22.3077 102.203 22.5719C102.102 22.836 101.949 23.0775 101.753 23.2825C101.558 23.4875 101.323 23.6518 101.063 23.766C100.804 23.8803 100.523 23.942 100.239 23.9479H100.235ZM114.594 26.1204V20.5474C114.594 17.9656 112.916 17.084 111.334 17.084C110.859 17.044 110.384 17.138 109.961 17.3553C109.538 17.5725 109.185 17.9041 108.944 18.3119H108.912V17.3831H106.459V26.1204H109.086V21.3031C109.086 20.1224 109.529 19.5399 110.59 19.5399C111.555 19.5399 111.967 20.0909 111.967 21.2716V26.1204H114.594Z" fill="url(#paint4_linear_2244_2967)"/>
<path d="M179.5 1L179.5 32" stroke="#D8D8D8" stroke-linecap="round"/>
<path d="M194.672 14.4929C194.619 14.0223 194.4 13.6577 194.016 13.3991C193.631 13.1373 193.147 13.0064 192.564 13.0064C192.146 13.0064 191.785 13.0727 191.48 13.2053C191.175 13.3345 190.938 13.5135 190.769 13.7422C190.603 13.9676 190.521 14.2244 190.521 14.5128C190.521 14.7547 190.577 14.9635 190.69 15.1392C190.806 15.3149 190.956 15.4624 191.142 15.5817C191.331 15.6977 191.533 15.7955 191.749 15.875C191.964 15.9512 192.171 16.0142 192.37 16.0639L193.364 16.3224C193.689 16.402 194.022 16.5097 194.364 16.6456C194.705 16.7815 195.022 16.9605 195.313 17.1825C195.605 17.4046 195.84 17.6797 196.019 18.0078C196.201 18.3359 196.293 18.7287 196.293 19.1861C196.293 19.7628 196.143 20.2749 195.845 20.7223C195.55 21.1697 195.121 21.5227 194.558 21.7812C193.997 22.0398 193.32 22.169 192.524 22.169C191.762 22.169 191.102 22.0481 190.545 21.8061C189.989 21.5642 189.553 21.2211 189.238 20.777C188.923 20.3295 188.749 19.7992 188.716 19.1861H190.257C190.287 19.554 190.406 19.8606 190.615 20.1058C190.827 20.3478 191.097 20.5284 191.425 20.6477C191.757 20.7637 192.12 20.8217 192.514 20.8217C192.948 20.8217 193.335 20.7538 193.673 20.6179C194.014 20.4787 194.282 20.2865 194.478 20.0412C194.674 19.7926 194.771 19.5026 194.771 19.1712C194.771 18.8696 194.685 18.6226 194.513 18.4304C194.344 18.2382 194.113 18.0791 193.822 17.9531C193.533 17.8272 193.207 17.7161 192.842 17.62L191.639 17.2919C190.824 17.0698 190.178 16.7434 189.7 16.3125C189.226 15.8816 188.989 15.3116 188.989 14.6023C188.989 14.0156 189.148 13.5036 189.467 13.0661C189.785 12.6286 190.216 12.2888 190.759 12.0469C191.303 11.8016 191.916 11.679 192.599 11.679C193.288 11.679 193.896 11.8 194.423 12.0419C194.954 12.2839 195.371 12.617 195.676 13.0412C195.981 13.4621 196.14 13.946 196.153 14.4929H194.672ZM201.574 14.3636V15.5568H197.403V14.3636H201.574ZM198.521 12.5341H200.008V19.7578C200.008 20.0462 200.051 20.2633 200.137 20.4091C200.223 20.5516 200.334 20.6494 200.47 20.7024C200.609 20.7521 200.76 20.777 200.922 20.777C201.042 20.777 201.146 20.7687 201.236 20.7521C201.325 20.7356 201.395 20.7223 201.444 20.7124L201.713 21.9403C201.627 21.9735 201.504 22.0066 201.345 22.0398C201.186 22.0762 200.987 22.0961 200.748 22.0994C200.357 22.1061 199.993 22.0365 199.655 21.8906C199.317 21.7448 199.043 21.5194 198.834 21.2145C198.626 20.9096 198.521 20.5268 198.521 20.0661V12.5341ZM208.055 18.8331V14.3636H209.547V22H208.085V20.6776H208.006C207.83 21.0852 207.548 21.425 207.161 21.6967C206.776 21.9652 206.297 22.0994 205.724 22.0994C205.233 22.0994 204.799 21.9917 204.421 21.7763C204.047 21.5575 203.752 21.2344 203.536 20.8068C203.324 20.3793 203.218 19.8506 203.218 19.2209V14.3636H204.705V19.0419C204.705 19.5623 204.849 19.9766 205.137 20.2848C205.425 20.593 205.8 20.7472 206.261 20.7472C206.539 20.7472 206.816 20.6776 207.091 20.5384C207.369 20.3991 207.6 20.1887 207.782 19.907C207.968 19.6252 208.059 19.2673 208.055 18.8331ZM214.403 22.1491C213.786 22.1491 213.236 21.9917 212.752 21.6768C212.272 21.3587 211.894 20.9062 211.619 20.3196C211.347 19.7296 211.211 19.022 211.211 18.1967C211.211 17.3714 211.349 16.6655 211.624 16.0788C211.902 15.4922 212.283 15.0431 212.767 14.7315C213.251 14.42 213.8 14.2642 214.413 14.2642C214.887 14.2642 215.268 14.3438 215.556 14.5028C215.848 14.6586 216.073 14.8409 216.232 15.0497C216.395 15.2585 216.521 15.4425 216.61 15.6016H216.7V11.8182H218.186V22H216.735V20.8118H216.61C216.521 20.9742 216.392 21.1598 216.222 21.3686C216.057 21.5774 215.828 21.7597 215.536 21.9155C215.245 22.0713 214.867 22.1491 214.403 22.1491ZM214.731 20.8814C215.159 20.8814 215.52 20.7687 215.815 20.5433C216.113 20.3146 216.338 19.9981 216.491 19.5938C216.647 19.1894 216.725 18.7187 216.725 18.1818C216.725 17.6515 216.648 17.1875 216.496 16.7898C216.343 16.392 216.12 16.0821 215.825 15.8601C215.53 15.638 215.165 15.527 214.731 15.527C214.284 15.527 213.911 15.643 213.612 15.875C213.314 16.107 213.089 16.4235 212.936 16.8246C212.787 17.2256 212.713 17.678 212.713 18.1818C212.713 18.6922 212.789 19.1513 212.941 19.5589C213.094 19.9666 213.319 20.2898 213.617 20.5284C213.919 20.7637 214.29 20.8814 214.731 20.8814ZM220.308 22V14.3636H221.794V22H220.308ZM221.059 13.1854C220.8 13.1854 220.578 13.0992 220.392 12.9268C220.21 12.7512 220.119 12.5424 220.119 12.3004C220.119 12.0552 220.21 11.8464 220.392 11.674C220.578 11.4983 220.8 11.4105 221.059 11.4105C221.317 11.4105 221.538 11.4983 221.72 11.674C221.905 11.8464 221.998 12.0552 221.998 12.3004C221.998 12.5424 221.905 12.7512 221.72 12.9268C221.538 13.0992 221.317 13.1854 221.059 13.1854ZM227.011 22.1541C226.295 22.1541 225.67 21.9901 225.137 21.6619C224.603 21.3338 224.189 20.8748 223.894 20.2848C223.599 19.6948 223.451 19.0054 223.451 18.2166C223.451 17.4245 223.599 16.7318 223.894 16.1385C224.189 15.5452 224.603 15.0845 225.137 14.7564C225.67 14.4283 226.295 14.2642 227.011 14.2642C227.727 14.2642 228.352 14.4283 228.885 14.7564C229.419 15.0845 229.833 15.5452 230.128 16.1385C230.423 16.7318 230.57 17.4245 230.57 18.2166C230.57 19.0054 230.423 19.6948 230.128 20.2848C229.833 20.8748 229.419 21.3338 228.885 21.6619C228.352 21.9901 227.727 22.1541 227.011 22.1541ZM227.016 20.9062C227.48 20.9062 227.864 20.7836 228.169 20.5384C228.474 20.2931 228.7 19.9666 228.845 19.5589C228.994 19.1513 229.069 18.7022 229.069 18.2116C229.069 17.7244 228.994 17.277 228.845 16.8693C228.7 16.4583 228.474 16.1286 228.169 15.88C227.864 15.6314 227.48 15.5071 227.016 15.5071C226.548 15.5071 226.161 15.6314 225.852 15.88C225.548 16.1286 225.32 16.4583 225.171 16.8693C225.026 17.277 224.953 17.7244 224.953 18.2116C224.953 18.7022 225.026 19.1513 225.171 19.5589C225.32 19.9666 225.548 20.2931 225.852 20.5384C226.161 20.7836 226.548 20.9062 227.016 20.9062Z" fill="#1E1E1E"/>
<path d="M6.79672 30.7048H0L7.81511 11.5088L11.2343 19.8418L6.79672 30.7048Z" fill="url(#paint5_linear_2244_2967)"/>
<path d="M26.8533 30.7048H33.6503L25.8349 11.5088L22.416 19.8418L26.8533 30.7048Z" fill="url(#paint6_linear_2244_2967)"/>
<path d="M13.9014 24.7836L8.10352 9.89258H14.1769L17.2373 17.5745L13.9014 24.7836Z" fill="url(#paint7_linear_2244_2967)"/>
<path d="M13.5039 23.7553L16.6455 32L29.5953 0H23.4712L13.5039 23.7553Z" fill="url(#paint8_linear_2244_2967)"/>
<path d="M39.7676 26.1204L43.6925 14.4707H40.6064L38.2325 22.6412H38.2008L35.8427 14.4707H32.7725L36.6815 26.1204H39.7676ZM52.5235 26.1204V17.3831H49.8964V18.3119H49.8647C49.5729 17.9083 49.1837 17.5843 48.7328 17.3697C48.282 17.1551 47.7841 17.0568 47.2851 17.084C44.7687 17.084 42.8854 19.1643 42.8854 21.7439C42.8854 24.3864 44.6896 26.4195 47.2851 26.4195C48.4404 26.4195 49.4849 25.9472 49.8647 25.1758H49.8964V26.1204H52.5235ZM47.6965 23.9793C47.4075 23.9779 47.1216 23.9196 46.8552 23.808C46.5888 23.6963 46.3472 23.5334 46.1443 23.3286C45.9414 23.1238 45.7811 22.8812 45.6727 22.6147C45.5643 22.3481 45.5098 22.0629 45.5125 21.7754C45.5032 21.4865 45.5517 21.1988 45.6552 20.9288C45.7587 20.6588 45.9152 20.412 46.1155 20.2027C46.3157 19.9934 46.5559 19.8258 46.8219 19.7097C47.0879 19.5936 47.3744 19.5313 47.6649 19.5264C47.958 19.526 48.2484 19.5832 48.5193 19.6946C48.7902 19.806 49.0363 19.9695 49.2436 20.1757C49.4509 20.3819 49.6153 20.6267 49.7273 20.8962C49.8393 21.1657 49.8967 21.4545 49.8964 21.7461C49.9029 22.0374 49.8509 22.327 49.7432 22.598C49.6355 22.8689 49.4745 23.1157 49.2695 23.3238C49.0645 23.5319 48.8197 23.6971 48.5496 23.8097C48.2795 23.9222 47.9894 23.9799 47.6965 23.9793ZM57.1448 26.1204V14.4707H54.5176V26.1204H57.1448ZM61.671 16.4543V14.4707H59.0439V16.4543H61.671ZM61.671 26.1204V17.3831H59.0439V26.1204H61.671ZM72.7177 26.1204V14.4707H70.0906V18.1253C69.758 17.7816 69.3565 17.5115 68.912 17.3325C68.4675 17.1534 67.9901 17.0695 67.5109 17.0863C64.9471 17.0863 63.1587 19.1171 63.1587 21.7304C63.1587 24.3729 64.8996 26.406 67.5584 26.406C68.8064 26.4015 69.6949 25.9787 70.1855 25.1758H70.2194V26.1204H72.7177ZM67.9857 23.9636C67.6897 23.9703 67.3956 23.9162 67.1216 23.8048C66.8476 23.6934 66.5996 23.5269 66.3932 23.3159C66.1868 23.1048 66.0263 22.8537 65.9218 22.5782C65.8173 22.3027 65.771 22.0087 65.7859 21.7146C65.7803 21.4244 65.834 21.1361 65.9436 20.8671C66.0532 20.5981 66.2164 20.354 66.4235 20.1494C66.6306 19.9449 66.8772 19.7843 67.1484 19.6772C67.4196 19.5701 67.7098 19.5188 68.0015 19.5264C68.2938 19.5186 68.5847 19.5695 68.8568 19.6762C69.1288 19.7828 69.3765 19.943 69.5848 20.1471C69.7932 20.3512 69.958 20.5951 70.0693 20.864C70.1807 21.133 70.2364 21.4215 70.233 21.7124C70.2415 22.009 70.1893 22.3042 70.0796 22.5801C69.9698 22.856 69.8049 23.1069 69.5947 23.3174C69.3845 23.528 69.1335 23.6938 68.8569 23.8049C68.5803 23.916 68.2839 23.97 67.9857 23.9636ZM83.8413 26.1204V17.3831H81.2164V18.3119H81.1847C80.8929 17.9083 80.5037 17.5843 80.0528 17.3697C79.602 17.1551 79.1041 17.0568 78.6051 17.084C76.0887 17.084 74.2054 19.1643 74.2054 21.7439C74.2054 24.3864 76.0096 26.4195 78.6051 26.4195C79.7604 26.4195 80.8049 25.9472 81.1847 25.1758H81.2164V26.1204H83.8413ZM79.0143 23.9793C78.7254 23.9776 78.4397 23.9191 78.1736 23.8073C77.9075 23.6955 77.6662 23.5326 77.4635 23.3278C77.2608 23.1231 77.1007 22.8805 76.9925 22.6141C76.8842 22.3477 76.8298 22.0627 76.8325 21.7754C76.8232 21.4865 76.8717 21.1988 76.9752 20.9288C77.0787 20.6588 77.2351 20.412 77.4354 20.2027C77.6357 19.9934 77.8759 19.8258 78.1419 19.7097C78.4079 19.5936 78.6944 19.5313 78.9849 19.5264C79.278 19.526 79.5684 19.5832 79.8393 19.6946C80.1102 19.806 80.3563 19.9695 80.5636 20.1757C80.7709 20.3819 80.9353 20.6267 81.0473 20.8962C81.1593 21.1657 81.2167 21.4545 81.2164 21.7461C81.2229 22.0374 81.1708 22.327 81.0632 22.598C80.9555 22.8689 80.7945 23.1157 80.5895 23.3238C80.3845 23.5319 80.1397 23.6971 79.8696 23.8097C79.5995 23.9222 79.3094 23.9799 79.0165 23.9793H79.0143ZM88.9848 26.1204V19.3667H90.2509V17.3831H88.9848V14.4707H86.3599V17.3831H85.0599V19.3667H86.3599V26.1204H88.9848ZM94.0152 16.4543V14.4707H91.3926V16.4543H94.0152ZM94.0152 26.1204V17.3831H91.3926V26.1204H94.0152ZM104.967 21.7124C104.971 21.0976 104.851 20.4883 104.613 19.9207C104.376 19.3532 104.026 18.839 103.584 18.4088C103.142 17.9786 102.618 17.6412 102.043 17.4167C101.468 17.1922 100.853 17.0852 100.235 17.102C99.6141 17.0846 98.9962 17.1924 98.4183 17.4189C97.8405 17.6453 97.3147 17.9857 96.8726 18.4196C96.4305 18.8535 96.0812 19.3719 95.8459 19.9436C95.6105 20.5152 95.4938 21.1284 95.5029 21.7461C95.4925 22.3642 95.6083 22.9779 95.8432 23.5502C96.0782 24.1225 96.4274 24.6414 96.8698 25.0755C97.3121 25.5097 97.8384 25.85 98.4169 26.076C98.9953 26.302 99.6138 26.4089 100.235 26.3902C100.859 26.4087 101.48 26.3006 102.061 26.0725C102.642 25.8444 103.17 25.501 103.613 25.0634C104.056 24.6258 104.405 24.103 104.639 23.5268C104.872 22.9507 104.986 22.3334 104.971 21.7124H104.967ZM100.235 23.9479C99.9512 23.9408 99.6716 23.8781 99.4122 23.7635C99.1528 23.6489 98.9187 23.4846 98.7232 23.2799C98.5277 23.0752 98.3747 22.8342 98.2729 22.5706C98.1711 22.307 98.1226 22.0261 98.13 21.7439C98.117 21.1767 98.3293 20.6273 98.7207 20.2147C99.1122 19.8022 99.6514 19.5597 100.221 19.5399C100.506 19.5452 100.787 19.6065 101.049 19.7203C101.31 19.8342 101.545 19.9982 101.743 20.203C101.94 20.4079 102.094 20.6495 102.197 20.9139C102.3 21.1783 102.349 21.4604 102.342 21.7439C102.351 22.0263 102.304 22.3077 102.203 22.5719C102.102 22.836 101.949 23.0775 101.753 23.2825C101.558 23.4875 101.323 23.6518 101.063 23.766C100.804 23.8803 100.523 23.942 100.239 23.9479H100.235ZM114.594 26.1204V20.5474C114.594 17.9656 112.916 17.084 111.334 17.084C110.859 17.044 110.384 17.138 109.961 17.3553C109.538 17.5725 109.185 17.9041 108.944 18.3119H108.912V17.3831H106.459V26.1204H109.086V21.3031C109.086 20.1224 109.529 19.5399 110.59 19.5399C111.555 19.5399 111.967 20.0909 111.967 21.2716V26.1204H114.594Z" fill="url(#paint9_linear_2244_2967)"/>
<path d="M129.028 26.2776V14.6279H125.166L122.872 22.2947H122.842L120.513 14.6279H116.67V26.2776H119.421L119.326 17.4459L121.859 26.2776H123.837L126.337 17.5246L126.369 17.5561L126.274 26.2776H129.028ZM140.264 26.2776V17.5403H137.637V18.4692H137.606C137.314 18.0655 136.925 17.7415 136.474 17.5269C136.023 17.3123 135.525 17.2141 135.026 17.2412C132.51 17.2412 130.626 19.3215 130.626 21.9011C130.626 24.5436 132.431 26.5767 135.026 26.5767C136.181 26.5767 137.226 26.1044 137.606 25.333H137.637V26.2776H140.264ZM135.437 24.1366C135.148 24.1351 134.863 24.0769 134.596 23.9652C134.33 23.8535 134.088 23.6906 133.885 23.4858C133.682 23.2811 133.522 23.0384 133.414 22.7719C133.305 22.5053 133.251 22.2201 133.253 21.9326C133.244 21.6438 133.293 21.356 133.396 21.086C133.5 20.816 133.656 20.5692 133.856 20.3599C134.057 20.1506 134.297 19.9831 134.563 19.867C134.829 19.7509 135.115 19.6885 135.406 19.6836C135.699 19.6832 135.989 19.7404 136.26 19.8518C136.531 19.9632 136.777 20.1267 136.985 20.3329C137.192 20.5391 137.356 20.784 137.468 21.0535C137.58 21.3229 137.638 21.6117 137.637 21.9033C137.644 22.1946 137.592 22.4842 137.484 22.7552C137.376 23.0261 137.215 23.2729 137.01 23.481C136.805 23.6891 136.561 23.8543 136.291 23.9669C136.02 24.0795 135.73 24.1372 135.437 24.1366ZM148.494 19.9962C148.367 18.2803 147.025 17.2412 145.123 17.2412C143.351 17.2412 141.72 18.359 141.72 20.0907C141.72 21.114 142.306 21.9798 144.522 22.6567C145.835 23.0661 146.136 23.3179 146.136 23.806C146.136 24.2153 145.677 24.4807 145.218 24.4807C145.1 24.4934 144.98 24.4829 144.866 24.4495C144.752 24.4161 144.645 24.3607 144.552 24.2863C144.46 24.2119 144.383 24.1201 144.326 24.016C144.269 23.912 144.233 23.7978 144.221 23.68H141.607C141.8 25.459 143.208 26.5767 145.186 26.5767C147.181 26.5767 148.763 25.4275 148.763 23.6013C148.763 22.3261 148.085 21.4918 145.994 20.9408C144.775 20.6259 144.348 20.3898 144.348 19.9175C144.348 19.5869 144.664 19.335 145.107 19.335C145.535 19.335 145.899 19.4924 145.914 19.9962H148.494ZM153.226 26.2776V19.5239H154.494V17.5403H153.228V14.6279H150.599V17.5403H149.299V19.5239H150.599V26.2776H153.226ZM164.099 22.704C164.143 22.4758 164.164 22.2437 164.16 22.0113C164.182 21.3924 164.078 20.7755 163.855 20.1974C163.632 19.6192 163.294 19.0918 162.861 18.6465C162.429 18.2012 161.91 17.8473 161.337 17.6059C160.764 17.3644 160.147 17.2404 159.525 17.2412C158.291 17.2619 157.115 17.7663 156.252 18.6448C155.39 19.5233 154.911 20.7048 154.92 21.9326C154.919 22.5403 155.04 23.1421 155.274 23.7035C155.507 24.265 155.85 24.7751 156.282 25.2047C156.714 25.6343 157.227 25.975 157.792 26.2074C158.356 26.4397 158.961 26.5591 159.572 26.5587C161.424 26.5587 163.02 25.441 163.861 23.5361H161.171C160.997 23.7967 160.758 24.0087 160.479 24.152C160.199 24.2952 159.887 24.365 159.572 24.3547C159.084 24.3831 158.603 24.2295 158.222 23.9238C157.842 23.6182 157.59 23.1824 157.515 22.7017L164.099 22.704ZM157.547 20.9408C157.65 20.5014 157.904 20.1116 158.265 19.8386C158.626 19.5656 159.072 19.4265 159.525 19.4452C159.983 19.4225 160.434 19.5594 160.801 19.8325C161.168 20.1056 161.428 20.4976 161.535 20.9408H157.547ZM168.229 26.2776V21.4603C168.229 20.4685 168.738 19.886 170.303 19.8703V17.2412C169.853 17.1904 169.398 17.2817 169.003 17.5021C168.609 17.7224 168.294 18.0608 168.103 18.4692H168.071V17.5403H165.602V26.2776H168.229Z" fill="#494848"/>
<defs>
<linearGradient id="paint0_linear_2244_2967" x1="9.43682" y1="15.9047" x2="-1.20208" y2="25.172" gradientUnits="userSpaceOnUse">
<stop stop-color="#F8AE29"/>
<stop offset="1" stop-color="#F18423"/>
</linearGradient>
<linearGradient id="paint1_linear_2244_2967" x1="24.4719" y1="15.5784" x2="35.4695" y2="24.9359" gradientUnits="userSpaceOnUse">
<stop stop-color="#6EB528"/>
<stop offset="1" stop-color="#169E31"/>
</linearGradient>
<linearGradient id="paint2_linear_2244_2967" x1="11.3186" y1="9.89258" x2="18.6123" y2="17.2461" gradientUnits="userSpaceOnUse">
<stop stop-color="#158BCB"/>
<stop offset="1" stop-color="#064F7E"/>
</linearGradient>
<linearGradient id="paint3_linear_2244_2967" x1="26.0069" y1="0.288" x2="5.8005" y2="13.0937" gradientUnits="userSpaceOnUse">
<stop stop-color="#0A5A8D"/>
<stop offset="1" stop-color="#147FB4"/>
</linearGradient>
<linearGradient id="paint4_linear_2244_2967" x1="73.6831" y1="14.4707" x2="73.6831" y2="26.4195" gradientUnits="userSpaceOnUse">
<stop stop-color="#0EA1EB"/>
<stop offset="1" stop-color="#0F67B1"/>
</linearGradient>
<linearGradient id="paint5_linear_2244_2967" x1="9.43682" y1="15.9047" x2="-1.20208" y2="25.172" gradientUnits="userSpaceOnUse">
<stop stop-color="#F8AE29"/>
<stop offset="1" stop-color="#F18423"/>
</linearGradient>
<linearGradient id="paint6_linear_2244_2967" x1="24.4719" y1="15.5784" x2="35.4695" y2="24.9359" gradientUnits="userSpaceOnUse">
<stop stop-color="#6EB528"/>
<stop offset="1" stop-color="#169E31"/>
</linearGradient>
<linearGradient id="paint7_linear_2244_2967" x1="11.3186" y1="9.89258" x2="18.6123" y2="17.2461" gradientUnits="userSpaceOnUse">
<stop stop-color="#158BCB"/>
<stop offset="1" stop-color="#064F7E"/>
</linearGradient>
<linearGradient id="paint8_linear_2244_2967" x1="26.0069" y1="0.288" x2="5.8005" y2="13.0937" gradientUnits="userSpaceOnUse">
<stop stop-color="#0A5A8D"/>
<stop offset="1" stop-color="#147FB4"/>
</linearGradient>
<linearGradient id="paint9_linear_2244_2967" x1="73.6831" y1="14.4707" x2="73.6831" y2="26.4195" gradientUnits="userSpaceOnUse">
<stop stop-color="#0EA1EB"/>
<stop offset="1" stop-color="#0F67B1"/>
</linearGradient>
</defs>
</svg>
